<?xml version="1.0" standalone="no"?><!DOCTYPE svg PUBLIC "-//W3C//DTD SVG 1.1//EN" "http://www.w3.org/Graphics/SVG/1.1/DTD/svg11.dtd"><svg t="1702347491921" class="icon" viewBox="0 0 1024 1024" version="1.1" xmlns="http://www.w3.org/2000/svg" p-id="12992" width="26" height="26" xmlns:xlink="http://www.w3.org/1999/xlink"><path d="M881.960495 151.460574c-4.307096 0-4.307096 0-23.591301 0.022513-25.720801 0.01228-25.720801 0.01228-62.183248 0.035816-64.289212 0.033769-104.896048 0.080841-164.925237 0.125867-3.612271 0-5.487991-1.330298-11.205203-9.144264-0.163729-0.230244-8.612145-12.234649-11.712763-16.251126-21.902846-28.417213-49.497321-43.279712-94.605681-43.2572-45.1452 0.022513-74.650187 15.232936-96.829326 43.049468-4.745071 5.949502-15.811104 22.23542-16.749476 23.474644-2.047636 2.672876-1.539053 2.325975 0.568958 2.313695-20.361747 0.023536-20.361747 0.023536-40.895409 0.047072-28.77844 0.022513-59.023278 0.058328-90.230024 0.103354-36.3243 0.058328-48.350195 0.105401-81.953524 0.162706-18.86772 0.034792-18.86772 0.034792-31.774681 0.046049-9.561773 0.011256-9.561773 0.011256-11.621688 0.011256-12.663414 0.022513-22.896476 10.314926-22.884197 22.966061 0.022513 12.652158 10.302647 22.895453 22.953781 22.87294 2.072195 0 2.072195 0 11.609409-0.022513 12.919241-0.011256 12.919241-0.011256 31.785937-0.046049 33.614585-0.058328 45.630247-0.104377 81.941244-0.150426 31.206746-0.046049 61.45363-0.081864 90.218768-0.116657 20.533662-0.022513 20.533662-0.022513 40.884153-0.045025 15.256472-0.01228 25.904996-7.408737 35.755342-20.246113 2.130524-2.75474 12.873192-18.578124 16.229636-22.803355 13.751189-17.234523 30.29191-25.778106 60.991096-25.789363 30.222325-0.01228 44.737924 7.800663 58.281381 25.39539 2.384303 3.091408 10.41828 14.46955 11.090593 15.406898 13.495362 18.392906 26.690896 27.885094 47.620577 27.862581 60.584843-0.046049 101.190657-0.092098 165.479869-0.13917 36.462446-0.022513 36.462446-0.022513 62.183248-0.034792 19.284205-0.022513 19.284205-0.022513 23.591301-0.022513 12.662391-0.01228 22.89443-10.266831 22.89443-22.930245C904.855948 161.704892 894.601396 151.449317 881.960495 151.460574z" fill="#ff5722" p-id="12993"></path><path d="M532.893354 815.226093l0-485.876016c0-12.663414-10.254551-22.918989-22.906709-22.918989-12.652158 0-22.918989 10.255575-22.918989 22.918989l0 485.876016c0 12.685927 10.266831 22.918989 22.918989 22.918989C522.63778 838.146105 532.893354 827.913043 532.893354 815.226093z" fill="#ff5722" p-id="12994"></path><path d="M878.85783 356.576161c0.093121-15.394618 0-15.394618 0-18.775622 0.093121-12.663414-7.824199-22.976294-20.487613-23.045879-12.663414-0.069585-24.261567 10.140964-24.353664 22.792099 0 3.391237 0.092098 3.391237 0 18.786878-0.095167 20.615527 0.160659 20.615527 0 50.110281-0.278339 52.203966 0.252757 105.521289 0 156.811442-0.071631 15.419178 0.092098 15.419178 0 30.975479-0.626263 130.246413-0.997724 218.958874-0.997724 247.249197 0 21.437242-5.115508 38.893822-17.638729 44.358277-7.432273 3.193739-17.59575 2.731204-23.86964 2.405793-0.347924 0-2.430352 0-2.430352 0-3.634784 0.047072-3.634784-0.184195-20.186761 0-16.114003 0.234337-34.218336-0.229221-53.848419 0-56.164161 0.696872-113.578802-0.647753-168.908968 0-17.873066 0.187265-17.873066-0.184195-35.778878 0-139.230018 1.574868-234.864122 0-266.87007 0-26.009374 0-38.650275-8.05649-44.773739-21.851681-3.403516-7.688099-4.399193-16.299221-3.946892-23.104207 0.046049-0.602727 0-2.963495 0-2.963495L194.76638 339.167676c0.057305-12.663414-7.847735-22.966061-20.512173-23.023366-12.651135-0.058328-25.164123 10.162454-25.221428 22.813588L149.03278 837.497329c-0.104377 0.831948 0.151449 0.831948 0 2.7793-0.8913 13.518898 0.902556 29.169343 7.79043 44.726667 13.554714 30.511921 42.712801 49.078789 86.663802 49.078789 32.249495 0 127.896902 1.574868 267.378653 0 17.955954-0.185218 17.955954 0.184195 35.803437 0 55.329143-0.647753 112.743784 0.695848 168.930457 0 19.632129-0.232291 37.736463 0.184195 53.848419 0 13.566994-0.160659 16.018835-0.021489 18.452257 0l-0.626263 0c14.676257 0.741897 27.988448-0.232291 42.920532-6.758937 29.055756-12.593829 48.663326-45.977147 48.663326-85.844134 0-28.198226-0.624217-116.864638 0-247.063979 0.093121-15.511275-0.047072-15.511275 0-30.931476 0.25378-51.290153-0.277316-104.59315 0-156.809395C878.998023 377.180432 878.742197 377.180432 878.85783 356.576161z" fill="#ff5722" p-id="12995"></path><path d="M372.494201 765.221212 372.494201 424.465364c0-12.652158-10.267854-22.907733-22.918989-22.907733s-22.918989 10.254551-22.918989 22.907733L326.656223 765.221212c0 12.68695 10.266831 22.917966 22.918989 22.917966S372.494201 777.909186 372.494201 765.221212z" fill="#ff5722" p-id="12996"></path><path d="M670.384775 787.815813c0 12.640901 10.279111 22.917966 22.920012 22.917966 12.663414 0 22.917966-10.278087 22.917966-22.917966L716.222753 589.552284c0-12.640901-10.254551-22.917966-22.917966-22.917966-12.641925 0-22.920012 10.278087-22.920012 22.917966L670.384775 787.815813z" fill="#ff5722" p-id="12997"></path><path d="M693.305811 496.222665c12.663414 0 22.917966-10.267854 22.917966-22.918989l0-86.954421c0-12.653181-10.254551-22.920012-22.917966-22.920012-12.641925 0-22.920012 10.266831-22.920012 22.920012l0 86.954421C670.384775 485.953787 680.663886 496.222665 693.305811 496.222665z" fill="#ff5722" p-id="12998"></path></svg>