<?xml version="1.0" standalone="no"?><!DOCTYPE svg PUBLIC "-//W3C//DTD SVG 1.1//EN" "http://www.w3.org/Graphics/SVG/1.1/DTD/svg11.dtd"><svg t="1702345059950" class="icon" viewBox="0 0 1024 1024" version="1.1" xmlns="http://www.w3.org/2000/svg" p-id="4305" width="26" height="26" xmlns:xlink="http://www.w3.org/1999/xlink"><path d="M787.795341 967.111522H236.318435c-32.483321 0-63.658207-12.799908-86.641152-35.49841-22.982945-22.755391-35.89663-53.588946-35.896629-85.787825V178.807882C113.780654 146.665892 126.694338 115.832337 149.620395 93.076946c23.039834-22.755391 54.21472-35.555299 86.69804-35.555299h394.123376a33.393537 33.393537 0 0 1 30.037117 8.647048l239.045384 236.542292a32.653986 32.653986 0 0 1 9.386599 18.659421c0.967104 2.844424 1.422212 5.916402 1.422212 9.045268v515.409611a120.603573 120.603573 0 0 1-35.839741 85.787825c-23.039834 22.755391-54.21472 35.49841-86.698041 35.49841zM665.25756 165.495978v134.598139h135.963462L665.314448 165.552867z m183.806672 195.241257h-214.469562a30.492224 30.492224 0 0 1-30.606001-30.321559v-212.194023H236.318435c-16.213216 0-31.857548 6.314621-43.292131 17.692317a60.301787 60.301787 0 0 0-17.976759 42.893912v667.017405c0 16.099439 6.485286 31.516217 17.976759 42.893912 11.491473 11.377696 27.078916 17.749205 43.292131 17.749205h551.476906c16.213216 0 31.857548-6.428398 43.292132-17.749205 11.491473-11.377696 17.976759-26.794473 17.976759-42.893912V360.737235z" fill="#1e9fff" p-id="4306"></path><path d="M372.054344 853.334566v-166.114356h118.896919c93.297104 0 140.514541-40.390819 140.514541-120.603573 0-79.643869-46.648552-119.465804-139.945656-119.465804H325.405792V853.334566h46.648552z m116.62138-206.505175H372.054344v-159.287739h116.62138c32.426432 0 56.319593 6.257733 72.248367 19.910968 15.928774 11.94658 23.893161 31.857548 23.893161 59.164017s-7.964387 47.217437-23.324276 60.301786c-15.928774 13.08435-39.821935 19.910967-72.817252 19.910968z" fill="#1e9fff" p-id="4307"></path></svg>