<?xml version="1.0" standalone="no"?><!DOCTYPE svg PUBLIC "-//W3C//DTD SVG 1.1//EN" "http://www.w3.org/Graphics/SVG/1.1/DTD/svg11.dtd"><svg t="1702348334241" class="icon" viewBox="0 0 1024 1024" version="1.1" xmlns="http://www.w3.org/2000/svg" p-id="5098" width="26" height="26" xmlns:xlink="http://www.w3.org/1999/xlink"><path d="M634.231879 802.717198c-59.83476 88.961124-120.692826 157.574828-223.105311 157.574828-69.891813-11.273764-98.587366-60.905138-83.420945-111.446231l131.73737-432.239422c3.15997-10.592242-2.167363-21.907962-11.902074-25.291013-9.744945-3.394307-28.77844 9.116635-45.271066 26.995841l-79.590709 94.907557c-2.172479-15.893992-0.234337-42.276872-0.234337-52.895721 59.83476-88.972381 158.083411-159.195745 224.732367-159.195745 63.394842 6.444782 93.332688 56.595996 82.298378 111.753223L496.849952 847.208505c-1.777483 9.854439 3.451612 19.766183 12.463869 22.895453 9.739828 3.394307 30.234605-9.121751 46.721091-26.990724l79.585593-94.907557C637.802194 764.094552 634.231879 792.08914 634.231879 802.717198zM611.149161 243.470127c-50.374294 0-91.212398-36.31509-91.212398-89.886193 0-53.56087 40.83708-89.87596 91.212398-89.87596 50.364061 0 91.201142 36.31509 91.201142 89.87596C702.350302 207.155037 661.513222 243.470127 611.149161 243.470127z" fill="#1e9fff" p-id="5099"></path></svg>